<svg id="Layer_1" data-name="Layer 1" xmlns="http://www.w3.org/2000/svg" viewBox="0 0 362 478"><defs><style>.cls-1,.cls-2,.cls-3,.cls-4{fill:none;stroke-miterlimit:10;stroke-width:8px;}.cls-1,.cls-2,.cls-3{stroke:#fff;}.cls-1{stroke-opacity:0.5;}.cls-2,.cls-4{stroke-opacity:0.25;}.cls-4{stroke:#e6e6e6;}

#Layer_1 .cls-1,
#Layer_1 .cls-2,
#Layer_1 .cls-3,
#Layer_1 .cls-4 {
    fill:none;
    stroke:#616161;
    stroke-miterlimit:10;
    stroke-dasharray: 10000;
    stroke-dashoffset: 10000;
    animation: draw 3s ease-in 1.75s forwards;
}

@keyframes draw {
    to {
        stroke-dashoffset: 0;
    }
}


</style></defs><title>logo</title><line class="cls-1" x1="357.5" y1="366.5" x2="290" y2="366.5"/><line class="cls-1" x1="254.17" y1="421.5" x2="186.67" y2="421.5"/><line class="cls-2" x1="1.67" y1="306.24" x2="180.08" y2="306.07"/><line class="cls-3" x1="357.5" y1="306" x2="185.83" y2="306"/><line class="cls-3" x1="183.33" y1="475.17" x2="183" y2="302"/><line class="cls-4" x1="164.17" y1="92.67" x2="205.83" y2="92.67"/><line class="cls-4" x1="150" y1="112.67" x2="220" y2="112.67"/><line class="cls-4" x1="138.75" y1="135.17" x2="231.25" y2="135.17"/><line class="cls-4" x1="124.58" y1="160.17" x2="245.42" y2="160.17"/><line class="cls-4" x1="140.42" y1="182.67" x2="229.58" y2="182.67"/><line class="cls-4" x1="158.75" y1="204.33" x2="211.25" y2="204.33"/><line class="cls-4" x1="173.33" y1="227.67" x2="196.67" y2="227.67"/><polygon class="cls-3" points="358 438.97 358 4 4 4 4 411.73 49.38 474 325.71 474 358 438.97"/></svg>
