<svg id="Layer_1" data-name="Layer 1" xmlns="http://www.w3.org/2000/svg" viewBox="0 0 2048 2048"><defs><style>.cls-1{fill:#99ffaf;}.cls-2,.cls-3{fill:#fff;}.cls-3{opacity:0.6;}</style></defs><title>hummingbird</title><rect class="cls-1" x="2.66" y="-2.92" width="2048" height="2048"/><circle class="cls-2" cx="1670.83" cy="480.43" r="3.78"/><circle class="cls-2" cx="1654.29" cy="485.62" r="8.03"/><circle class="cls-2" cx="1631.86" cy="492.71" r="9.57"/><circle class="cls-2" cx="1608.01" cy="502.27" r="10.86"/><circle class="cls-2" cx="1582.85" cy="512.07" r="10.39"/><circle class="cls-2" cx="1557.47" cy="524" r="10.39"/><circle class="cls-2" cx="1349.22" cy="592.78" r="13.56"/><circle class="cls-2" cx="1322.65" cy="587.57" r="6.92"/><circle class="cls-2" cx="1393.45" cy="656.68" r="8.1"/><circle class="cls-2" cx="1391.94" cy="675.37" r="4.03"/><circle class="cls-2" cx="1366.61" cy="784.65" r="5.79" transform="translate(-154.56 1196.16) rotate(-45)"/><circle class="cls-2" cx="1531.02" cy="536.04" r="10.39"/><circle class="cls-2" cx="1503.94" cy="548.88" r="11.01"/><circle class="cls-2" cx="1476.09" cy="563.17" r="12.94"/><circle class="cls-2" cx="1444.77" cy="581.52" r="18.37"/><circle class="cls-2" cx="1318.87" cy="842.3" r="27.41"/><circle class="cls-2" cx="1163.45" cy="766.85" r="18.14"/><circle class="cls-2" cx="1160.05" cy="735.56" r="7.04"/><circle class="cls-2" cx="1135.99" cy="784.65" r="8.18"/><circle class="cls-2" cx="1189.99" cy="785.79" r="7.04"/><circle class="cls-2" cx="1266.51" cy="821.93" r="7.04"/><circle class="cls-2" cx="1280.59" cy="834.48" r="6.46"/><circle class="cls-2" cx="1286.33" cy="847.99" r="2.96"/><circle class="cls-2" cx="1305.19" cy="876.7" r="3.73"/><circle class="cls-2" cx="1289.29" cy="819.56" r="5.44"/><circle class="cls-2" cx="1252.83" cy="815.16" r="2.87"/><circle class="cls-2" cx="1203.61" cy="792.4" r="2.87"/><circle class="cls-2" cx="1150.74" cy="789.52" r="2.87"/><circle class="cls-2" cx="1108.97" cy="798.6" r="3.68"/><circle class="cls-2" cx="1100.1" cy="804.99" r="1.93"/><circle class="cls-2" cx="1120.55" cy="791.8" r="4.86"/><circle class="cls-2" cx="1243.65" cy="810.85" r="1.38"/><circle class="cls-2" cx="1211.82" cy="796.65" r="1.38"/><circle class="cls-2" cx="1160.05" cy="717.56" r="4.59"/><circle class="cls-2" cx="1350.52" cy="807.73" r="11.83"/><circle class="cls-2" cx="1322.48" cy="890.32" r="13.56"/><circle class="cls-2" cx="1176.25" cy="1134.64" r="38.81"/><circle class="cls-2" cx="1236.28" cy="1102.19" r="17.03"/><circle class="cls-2" cx="1266.24" cy="1075.65" r="9.51"/><circle class="cls-2" cx="1155.13" cy="1194.28" r="16.45"/><circle class="cls-2" cx="1283.41" cy="1050.93" r="5.18"/><circle class="cls-2" cx="1130.25" cy="1102.19" r="9.78"/><circle class="cls-2" cx="1181.23" cy="1183.23" r="4.35"/><circle class="cls-2" cx="1227.09" cy="1130.29" r="5.69"/><circle class="cls-2" cx="1207.83" cy="1094.71" r="4.02"/><circle class="cls-2" cx="1136.59" cy="1223.33" r="5.04"/><circle class="cls-2" cx="1123.51" cy="1237.68" r="3.56"/><circle class="cls-2" cx="891.67" cy="1224.86" r="19.38"/><circle class="cls-2" cx="985.73" cy="1307.38" r="19.91"/><circle class="cls-2" cx="871.37" cy="1390.75" r="9.86"/><circle class="cls-2" cx="891.67" cy="1186.52" r="9.29"/><circle class="cls-2" cx="896.05" cy="1163.42" r="4.23"/><circle class="cls-2" cx="863.51" cy="1244.25" r="4.23"/><circle class="cls-2" cx="1022" cy="1298.71" r="4.23"/><circle class="cls-2" cx="970.06" cy="1334.3" r="4.23"/><circle class="cls-2" cx="819.71" cy="1341.63" r="9.92"/><circle class="cls-2" cx="811.56" cy="1435.89" r="5.03"/><circle class="cls-2" cx="777.91" cy="1408.98" r="3.55"/><circle class="cls-2" cx="1321.38" cy="918.93" r="6.13"/><circle class="cls-2" cx="1318.87" cy="938.53" r="3.22"/><circle class="cls-2" cx="1395.97" cy="611.35" r="31.35"/><circle class="cls-2" cx="1277.15" cy="700.73" r="110.12"/><circle class="cls-2" cx="1164.64" cy="942.15" r="146.88"/><circle class="cls-2" cx="1019.29" cy="1171.33" r="113.95"/><circle class="cls-2" cx="895.17" cy="1314.79" r="65.54"/><circle class="cls-2" cx="819.71" cy="1390.75" r="34.78"/><circle class="cls-2" cx="777.91" cy="1444.28" r="25.27"/><circle class="cls-2" cx="745.79" cy="1490.16" r="22.72"/><circle class="cls-2" cx="716.86" cy="1526.58" r="16.09"/><circle class="cls-2" cx="691.62" cy="1555.26" r="16.09"/><circle class="cls-2" cx="935.29" cy="874.62" r="84"/><circle class="cls-2" cx="920.59" cy="1040.21" r="41.42"/><circle class="cls-2" cx="996.35" cy="1025.16" r="27.89"/><circle class="cls-2" cx="994.46" cy="970.9" r="20.29"/><circle class="cls-2" cx="1033.24" cy="844.97" r="11.59"/><circle class="cls-2" cx="1016.71" cy="829.65" r="6.11"/><circle class="cls-2" cx="1028.93" cy="866.99" r="4.32"/><circle class="cls-2" cx="960.32" cy="992.54" r="13.85"/><circle class="cls-2" cx="926.21" cy="978.71" r="13.85"/><circle class="cls-2" cx="825.39" cy="895.9" r="22.14"/><circle class="cls-2" cx="883.62" cy="779.6" r="18.73"/><circle class="cls-3" cx="1066.8" cy="799.86" r="22.14"/><circle class="cls-3" cx="1009.3" cy="774.05" r="32.3"/><circle class="cls-3" cx="920.9" cy="720.07" r="46.78"/><circle class="cls-3" cx="815.86" cy="675.37" r="54.49"/><circle class="cls-2" cx="696.43" cy="814.29" r="22.14"/><circle class="cls-2" cx="659.41" cy="869.71" r="17.94"/><circle class="cls-2" cx="659.42" cy="833.94" r="13.34"/><circle class="cls-2" cx="652.83" cy="797.86" r="17.94"/><circle class="cls-2" cx="628.18" cy="765.31" r="17.94"/><circle class="cls-2" cx="597.54" cy="802.91" r="24.46"/><circle class="cls-2" cx="627.18" cy="850.24" r="12.48"/><circle class="cls-2" cx="600.69" cy="876.99" r="4.85"/><circle class="cls-2" cx="564.97" cy="850.24" r="6.34"/><circle class="cls-2" cx="604.57" cy="839.25" r="8.02"/><circle class="cls-2" cx="632.31" cy="823.95" r="9.98"/><circle class="cls-2" cx="558.63" cy="795.91" r="11.62"/><circle class="cls-2" cx="727.16" cy="872.76" r="17.94"/><circle class="cls-2" cx="693.73" cy="855.9" r="12.87"/><circle class="cls-2" cx="885.25" cy="977.2" r="20.06"/><circle class="cls-2" cx="860.61" cy="946.33" r="14.61"/><circle class="cls-2" cx="847.68" cy="922.23" r="6.82"/><circle class="cls-2" cx="1006.81" cy="938.53" r="4.82"/><circle class="cls-2" cx="1036.01" cy="1042.56" r="6.89"/><circle class="cls-2" cx="748.81" cy="729.86" r="12.56"/><circle class="cls-2" cx="662.2" cy="699.01" r="7.59"/><circle class="cls-2" cx="587.3" cy="679.42" r="5.36"/><circle class="cls-2" cx="519.36" cy="669.98" r="4.07"/><circle class="cls-2" cx="472.33" cy="668.64" r="3.47"/><circle class="cls-2" cx="859.95" cy="758.71" r="3.72"/><circle class="cls-2" cx="871.51" cy="807.13" r="3.72"/><circle class="cls-2" cx="842.26" cy="866.99" r="3.72"/><circle class="cls-2" cx="917.02" cy="779.6" r="8.33"/><circle class="cls-2" cx="792.54" cy="803.2" r="69.04"/><circle class="cls-2" cx="691.17" cy="743.72" r="41.46"/><circle class="cls-2" cx="616.23" cy="709.56" r="33.05"/><circle class="cls-2" cx="766.75" cy="909.45" r="31.72"/><circle class="cls-2" cx="815.92" cy="947.52" r="23.38"/><circle class="cls-2" cx="847.68" cy="977.2" r="12.93"/><circle class="cls-2" cx="549.44" cy="692.74" r="30"/><circle class="cls-2" cx="520.63" cy="771.91" r="18.71"/><circle class="cls-2" cx="486.18" cy="761.33" r="9.77"/><circle class="cls-2" cx="470.33" cy="745.26" r="7.6"/><circle class="cls-2" cx="576.34" cy="833.86" r="8.37"/><circle class="cls-2" cx="469.1" cy="727.66" r="4.83"/><circle class="cls-2" cx="545.8" cy="780.94" r="4.24"/><circle class="cls-2" cx="538.46" cy="794.41" r="5.9"/><circle class="cls-2" cx="529.74" cy="825.49" r="4.53"/><circle class="cls-2" cx="500.7" cy="727.66" r="23.14"/><circle class="cls-2" cx="467.7" cy="705.63" r="11.67"/><circle class="cls-2" cx="437.51" cy="707.34" r="13.07"/><circle class="cls-2" cx="414.53" cy="707.34" r="6.3"/><circle class="cls-2" cx="567.03" cy="753.86" r="26.33"/><circle class="cls-2" cx="495.64" cy="679.42" r="18.21"/><ellipse class="cls-2" cx="396.33" cy="710.72" rx="8.11" ry="8.1" transform="translate(-358.69 1014.29) rotate(-82.76)"/><ellipse class="cls-2" cx="414.52" cy="729.86" rx="9.45" ry="9.45" transform="translate(-356.64 1061.27) rotate(-83.66)"/><ellipse class="cls-2" cx="436.35" cy="748.32" rx="10.13" ry="10.12" transform="translate(-352.31 1106.64) rotate(-84.19)"/><ellipse class="cls-2" cx="451.65" cy="731.49" rx="8.99" ry="8.98" transform="translate(-321.83 1106.74) rotate(-84.19)"/><circle class="cls-2" cx="433.29" cy="728.44" r="4.05" transform="translate(-335.28 1085.73) rotate(-84.19)"/><ellipse class="cls-2" cx="459.38" cy="765.31" rx="10.8" ry="10.79" transform="translate(-344.59 1153.09) rotate(-84.77)"/><ellipse class="cls-2" cx="487.7" cy="786.39" rx="11.47" ry="11.47" transform="translate(-335.01 1209.95) rotate(-85.43)"/><ellipse class="cls-2" cx="517.78" cy="807.92" rx="12.15" ry="12.14" transform="translate(-322.85 1270.72) rotate(-86.18)"/><ellipse class="cls-2" cx="550.63" cy="832.41" rx="12.82" ry="12.81" transform="translate(-309.2 1339.16) rotate(-87.03)"/><path class="cls-2" d="M599.25,858.21a13.49,13.49,0,1,1-13-14A13.5,13.5,0,0,1,599.25,858.21Z"/><path class="cls-2" d="M636.87,883.56a14.16,14.16,0,1,1-13.95-14.37A14.17,14.17,0,0,1,636.87,883.56Z"/><path class="cls-2" d="M675.79,908.55a14.83,14.83,0,1,1-15-14.71A14.84,14.84,0,0,1,675.79,908.55Z"/><path class="cls-2" d="M706.59,893.26A13.52,13.52,0,1,1,693,879.85,13.53,13.53,0,0,1,706.59,893.26Z"/><ellipse class="cls-2" cx="720.6" cy="908.67" rx="9.69" ry="9.7" transform="translate(-7.4 5.92) rotate(-0.47)"/><path class="cls-2" d="M713.44,932.65a13.44,13.44,0,1,1-13.91-13A13.45,13.45,0,0,1,713.44,932.65Z"/><path class="cls-2" d="M751.65,953.68a13.83,13.83,0,1,1-14.75-12.84A13.84,13.84,0,0,1,751.65,953.68Z"/><path class="cls-2" d="M793.78,973.65a18.36,18.36,0,1,1-20.27-16.24A18.37,18.37,0,0,1,793.78,973.65Z"/><path class="cls-2" d="M834.42,992.86a17.53,17.53,0,1,1-20.11-14.49A17.54,17.54,0,0,1,834.42,992.86Z"/><path class="cls-2" d="M875.29,1010a18.2,18.2,0,1,1-21.82-13.66A18.21,18.21,0,0,1,875.29,1010Z"/><circle class="cls-2" cx="453.62" cy="677.89" r="13.32"/><circle class="cls-2" cx="418.02" cy="682.48" r="12.5"/><circle class="cls-2" cx="383.89" cy="687.08" r="10.5"/><circle class="cls-3" cx="654.76" cy="645.66" r="17.94" transform="translate(-25.07 1264.85) rotate(-86.93)"/><circle class="cls-3" cx="747.58" cy="646.31" r="14.04" transform="translate(62.12 1358.17) rotate(-86.93)"/><circle class="cls-3" cx="725.42" cy="673.29" r="12.23" transform="translate(14.2 1361.57) rotate(-86.93)"/><circle class="cls-3" cx="718.56" cy="646.31" r="10.58" transform="translate(34.66 1329.19) rotate(-86.93)"/><circle class="cls-3" cx="765.74" cy="609.37" r="21.42" transform="translate(116.19 1341.33) rotate(-86.93)"/><circle class="cls-3" cx="688.71" cy="675.37" r="17.94" transform="translate(-22.62 1326.88) rotate(-86.93)"/><circle class="cls-3" cx="747.96" cy="696.5" r="12.7" transform="translate(12.36 1406.05) rotate(-86.93)"/><circle class="cls-3" cx="631.89" cy="611.83" r="17.94" transform="matrix(0.05, -1, 1, 0.05, -12.94, 1210)"/><circle class="cls-3" cx="599.27" cy="647.73" r="24.46" transform="translate(-79.65 1211.41) rotate(-86.93)"/><circle class="cls-3" cx="560.79" cy="638.65" r="11.62" transform="translate(-107.01 1164.4) rotate(-86.93)"/><circle class="cls-3" cx="659.47" cy="675.37" r="6.91" transform="translate(-50.29 1297.69) rotate(-86.93)"/><circle class="cls-3" cx="684.63" cy="645.48" r="4.89" transform="matrix(0.05, -1, 1, 0.05, 3.38, 1294.52)"/><circle class="cls-3" cx="698.75" cy="648.54" r="4.49" transform="translate(13.68 1311.51) rotate(-86.93)"/><circle class="cls-3" cx="878.86" cy="684.5" r="4.15" transform="translate(148.23 1525.39) rotate(-86.93)"/><circle class="cls-3" cx="864.9" cy="715.7" r="3" transform="translate(103.86 1540.98) rotate(-86.93)"/><circle class="cls-3" cx="750.34" cy="672.07" r="6.15" transform="translate(39 1385.3) rotate(-86.93)"/><circle class="cls-3" cx="736.55" cy="624.05" r="5.45" transform="translate(73.9 1326.08) rotate(-86.93)"/><circle class="cls-3" cx="888.98" cy="664.78" r="13.46" transform="translate(177.5 1516.84) rotate(-86.93)"/><circle class="cls-3" cx="987.08" cy="726.99" r="14.68" transform="translate(208.21 1673.67) rotate(-86.93)"/><circle class="cls-3" cx="959.25" cy="774.05" r="13.59" transform="translate(134.89 1690.42) rotate(-86.93)"/><circle class="cls-3" cx="856.9" cy="736.84" r="13.46" transform="translate(75.17 1553) rotate(-86.93)"/><circle class="cls-3" cx="971.56" cy="750.3" r="8.56" transform="translate(170.25 1680.23) rotate(-86.93)"/><circle class="cls-3" cx="1053.02" cy="771.73" r="7.27" transform="translate(225.94 1781.86) rotate(-86.93)"/><circle class="cls-3" cx="1055.38" cy="829.65" r="7.27" transform="translate(170.34 1839.04) rotate(-86.93)"/><circle class="cls-3" cx="1041.6" cy="818.57" r="6.07" transform="translate(168.36 1814.78) rotate(-86.93)"/><circle class="cls-3" cx="1037.87" cy="804.73" r="3.94" transform="translate(178.66 1797.97) rotate(-86.93)"/><circle class="cls-3" cx="1028.47" cy="813.23" r="2.61" transform="translate(161.27 1796.63) rotate(-86.93)"/><circle class="cls-3" cx="695.95" cy="593.64" r="41.46" transform="translate(65.85 1256.76) rotate(-86.93)"/><circle class="cls-3" cx="622.94" cy="555.51" r="33.05" transform="translate(34.83 1147.78) rotate(-86.93)"/><circle class="cls-3" cx="557.15" cy="535.13" r="30" transform="translate(-7.08 1062.79) rotate(-86.93)"/><circle class="cls-3" cx="524.14" cy="612.65" r="18.71" transform="translate(-115.73 1103.19) rotate(-86.93)"/><circle class="cls-3" cx="490.3" cy="600.23" r="9.77" transform="translate(-135.36 1057.65) rotate(-86.93)"/><circle class="cls-3" cx="475.34" cy="583.34" r="7.6" transform="translate(-132.65 1026.72) rotate(-86.93)"/><circle class="cls-3" cx="475.05" cy="565.7" r="4.83" transform="matrix(0.05, -1, 1, 0.05, -115.31, 1009.74)"/><circle class="cls-3" cx="548.79" cy="623.02" r="4.24" transform="translate(-102.76 1137.61) rotate(-86.93)"/><circle class="cls-3" cx="631.89" cy="661.21" r="4.24" transform="translate(-62.25 1256.74) rotate(-86.93)"/><circle class="cls-3" cx="540.74" cy="636.08" r="5.9" transform="translate(-123.41 1141.93) rotate(-86.93)"/><circle class="cls-3" cx="506.61" cy="567.4" r="23.14" transform="translate(-87.13 1042.86) rotate(-86.93)"/><circle class="cls-3" cx="474.84" cy="543.63" r="11.67" transform="translate(-93.46 988.63) rotate(-86.93)"/><circle class="cls-3" cx="444.6" cy="543.71" r="13.07" transform="translate(-122.17 958.52) rotate(-86.93)"/><circle class="cls-3" cx="421.65" cy="542.48" r="6.3" transform="translate(-142.66 934.44) rotate(-86.93)"/><circle class="cls-3" cx="571.44" cy="597.11" r="26.33" transform="matrix(0.05, -1, 1, 0.05, -55.45, 1135.72)"/><circle class="cls-3" cx="504.14" cy="518.95" r="18.21" transform="translate(-41.09 994.54) rotate(-86.93)"/><ellipse class="cls-3" cx="403.29" cy="544.89" rx="8.11" ry="8.1" transform="translate(-205 844.09) rotate(-79.68)"/><ellipse class="cls-3" cx="420.44" cy="564.97" rx="9.45" ry="9.45" transform="translate(-205.69 887.36) rotate(-80.59)"/><ellipse class="cls-3" cx="441.24" cy="584.57" rx="10.13" ry="10.12" transform="translate(-204.47 930.23) rotate(-81.11)"/><ellipse class="cls-3" cx="457.42" cy="568.59" rx="8.99" ry="8.98" transform="translate(-175.01 932.7) rotate(-81.11)"/><circle class="cls-3" cx="439.26" cy="564.56" r="4.05" transform="translate(-186.37 911.34) rotate(-81.11)"/><ellipse class="cls-3" cx="463.33" cy="602.78" rx="10.8" ry="10.79" transform="translate(-200.01 974.25) rotate(-81.7)"/><ellipse class="cls-3" cx="490.48" cy="625.34" rx="11.47" ry="11.47" transform="translate(-194.51 1028.34) rotate(-82.36)"/><ellipse class="cls-3" cx="519.35" cy="648.46" rx="12.15" ry="12.14" transform="translate(-186.75 1086.23) rotate(-83.11)"/><circle class="cls-3" cx="462.26" cy="515.17" r="13.32" transform="translate(-76.95 949.15) rotate(-86.93)"/><circle class="cls-3" cx="426.47" cy="517.84" r="12.5" transform="translate(-113.5 915.93) rotate(-86.93)"/><circle class="cls-3" cx="392.14" cy="520.61" r="10.5" transform="translate(-148.74 884.27) rotate(-86.93)"/></svg>