<?xml version="1.0" encoding="utf-8"?>
<!-- Generator: Adobe Illustrator 19.2.1, SVG Export Plug-In . SVG Version: 6.00 Build 0)  -->
<svg version="1.1" id="Layer_1" xmlns="http://www.w3.org/2000/svg" xmlns:xlink="http://www.w3.org/1999/xlink" x="0px" y="0px"
	 viewBox="0 0 277.5 445.7" style="enable-background:new 0 0 277.5 445.7;" xml:space="preserve">
<title>Untitled-1</title>
<path d="M147.6,36.1c-3-6.2-11.2-7.8-17.9-4.5c-6.7,3.2-10.6,10.6-7.6,16.8c1,2.2,2.8,4,5.1,5c1,1.9,1.2,5.3,1.1,7.8
	c2.5-1.8,5.9-4.8,7.2-6.8C146.5,52,150.7,42.6,147.6,36.1z M130,46.8c-0.9,0.4-1.9,0.1-2.4-0.8c-0.4-0.9-0.1-1.9,0.8-2.4
	c0.9-0.4,1.9-0.1,2.4,0.8c0,0,0,0,0,0C131.2,45.3,130.9,46.3,130,46.8z M135.7,44c-0.9,0.4-1.9,0.1-2.4-0.8
	c-0.4-0.9-0.1-1.9,0.8-2.4c0.9-0.4,1.9-0.1,2.4,0.8c0,0,0,0,0,0C137,42.5,136.6,43.6,135.7,44C135.7,44,135.7,44,135.7,44L135.7,44z
	 M141.5,41.2c-0.9,0.4-1.9,0.1-2.4-0.8c-0.4-0.9-0.1-1.9,0.8-2.4c0.9-0.4,1.9-0.1,2.4,0.8c0,0,0,0,0,0
	C142.7,39.8,142.4,40.8,141.5,41.2C141.5,41.2,141.5,41.2,141.5,41.2L141.5,41.2z M157.6,47.3c0.9,1.5,2.1,2.8,3.5,3.8
	c-2.1,0.6-4.2,0.9-6.4,0.9c-3.8,3.1-8,3.4-11,2c5.4-3.6,8.3-9.6,7.6-15.2c2.5,0.2,4.6,1.7,5.8,4C157.8,44.2,157.9,45.8,157.6,47.3z"
	/>
<path d="M189,416.5v12.1c0,9.5-22.9,17.1-49.2,17.1s-49.2-7.7-49.2-17.1v-12.1c11.9,8.5,34.4,11.1,49.2,11.1S177.1,425,189,416.5z
	 M139.8,399.7c-14.8,0-37.3-2.6-49.2-11.1v12c0,9.5,22.9,17.1,49.2,17.1s49.2-7.7,49.2-17.1v-12
	C177.1,397.2,154.5,399.7,139.8,399.7L139.8,399.7z M139.8,327.7c-26.3,0-49.2,7.7-49.2,17.1s22.9,17.1,49.2,17.1
	s49.2-7.7,49.2-17.1S166.1,327.7,139.8,327.7L139.8,327.7z M139.8,371.9c-14.8,0-37.3-2.6-49.2-11.1v12c0,9.5,22.9,17.1,49.2,17.1
	s49.2-7.7,49.2-17.1v-12C177.1,369.3,154.5,371.9,139.8,371.9L139.8,371.9z"/>
<path d="M63.5,85.9l13.9,38.1C63.2,117.2,57.1,100.3,63.5,85.9z M109.8,96.3c0-2.8-0.9-5.6-2.4-8c-1.5-2.4-2.9-4.4-2.9-6.8
	c-0.1-2.8,2.1-5.1,4.8-5.2c0.1,0,0.3,0,0.4,0c-11.9-10.9-30.3-10.1-41.2,1.8c-1.1,1.1-2,2.4-2.9,3.7c3.2,0.1,6.4,0,9.7-0.3
	c0.7-0.1,1.2,0.4,1.3,1.1c0.1,0.7-0.4,1.2-1.1,1.3c0,0-1.6,0.2-3.3,0.3l10.6,31.5l6.4-19.1l-4.6-12.4c-1.6-0.1-3.1-0.3-3.1-0.3
	c-0.7-0.1-1.1-0.7-1-1.4c0.1-0.6,0.6-1,1.2-1c5.1,0.5,10.3,0.5,15.5,0c0.7,0,1.2,0.6,1.2,1.2c0,0.6-0.4,1.1-1,1.2
	c0,0-1.6,0.2-3.3,0.3l10.5,31.4l2.9-9.7C108.9,101.7,109.8,98.8,109.8,96.3z M90.6,100.3l-8.7,25.5c5.9,1.7,12.1,1.6,17.9-0.5
	C99.6,124.9,90.8,100.8,90.6,100.3L90.6,100.3z M115.7,83.8c0.5,4.6-0.2,9.2-2,13.4l-8.9,25.8C118.5,115.1,123.3,97.7,115.7,83.8
	L115.7,83.8z M124.1,97.8c0,18.8-15.2,34-34,34s-34-15.2-34-34s15.2-34,34-34l0,0C108.9,63.8,124.1,79,124.1,97.8
	C124.1,97.8,124.1,97.8,124.1,97.8L124.1,97.8z M122.6,97.8c0-17.9-14.5-32.4-32.4-32.4S57.7,79.9,57.7,97.8s14.5,32.4,32.4,32.4
	C108,130.2,122.5,115.7,122.6,97.8L122.6,97.8z"/>
<path d="M203.8,298c0.5-1.8-0.5-3.7-2.3-4.2l-16.4-4.7c-1.8-0.5-3.7,0.5-4.2,2.3l-9.3,32.7c-0.5,1.8,0.5,3.7,2.3,4.2l16.4,4.7
	c1.8,0.5,3.7-0.5,4.2-2.3L203.8,298z M189.9,294l4.9,1.4c0.5,0.1,0.7,0.6,0.6,1c-0.1,0.5-0.6,0.7-1,0.6c0,0-0.1,0-0.1,0l-4.9-1.4
	c-0.4-0.2-0.6-0.7-0.3-1.2C189.3,294.2,189.6,294,189.9,294L189.9,294z M183.1,327.4c-0.9-0.3-1.4-1.2-1.2-2.1
	c0.3-0.9,1.2-1.4,2.1-1.2c0.9,0.3,1.4,1.2,1.2,2.1c0,0,0,0,0,0C184.9,327.1,184,327.7,183.1,327.4
	C183.1,327.4,183.1,327.4,183.1,327.4L183.1,327.4z M192.6,324.8l-16.4-4.7l6.5-22.9l16.4,4.7L192.6,324.8z"/>
<path d="M115.1,324.3c2.2-0.5,3.6-2.8,3.1-5c0,0,0,0,0,0l-9.5-40.3c-0.5-2.2-2.8-3.6-5-3.1c0,0,0,0,0,0l-28.2,6.7
	c-2.2,0.5-3.6,2.8-3.1,5c0,0,0,0,0,0l9.5,40.3c0.5,2.2,2.8,3.6,5,3.1c0,0,0,0,0,0L115.1,324.3z M85.5,324.9l-8.6-36.2l28.2-6.7
	l8.6,36.2L85.5,324.9z M99.3,324.8c-0.1-0.5,0.2-1.1,0.8-1.2c0.5-0.1,1.1,0.2,1.2,0.8c0.1,0.5-0.2,1-0.7,1.2
	C100,325.7,99.5,325.4,99.3,324.8C99.3,324.9,99.3,324.8,99.3,324.8L99.3,324.8z"/>
<path d="M82.9,180.4l-0.4,2.5l-10.2,3.1l0.4-2.6l7.2-2.2l-6.1-4.4l0.4-2.6L82.9,180.4z M63.2,181.9l-6.1-4.4l7.2-2.2l0.5-2.6
	l-10.2,3.1l-0.4,2.5l8.7,6.2L63.2,181.9z M73.6,170.5l-2.5-0.4l-7.8,18.2l2.4,0.4L73.6,170.5z"/>
<path d="M152.1,69.6l-8.7,2.8l-2.1-6.5l8.7-2.8L152.1,69.6z M145.4,86l-6.5,2.1l2.1,6.5l6.5-2.1L145.4,86z M164.9,79.8l-6.5,2.1
	l2.1,6.5l6.5-2.1L164.9,79.8z M150.6,76l-1-3.3l-2.2,0.7l1,3.3l-9.7,3.1l1.7,5.4l2.2-0.7l-1-3.3l7.6-2.4l1,3.3l2.2-0.7l-1-3.3
	l7.6-2.4l1,3.3l2.2-0.7l-1.7-5.4L150.6,76z M155.2,82.9l-6.5,2.1l2.1,6.5l6.5-2.1L155.2,82.9z"/>
<path d="M60.2,126.4c5,6.6,7.2,15,6.1,23.2l9.1,1.3l-13.7,13.9l-9.8-17.1l9.2,1.3c2-14.4-8.1-27.6-22.5-29.5S11,127.5,9.1,141.9
	c-2,14.4,8.1,27.6,22.5,29.5c2.7,0.4,5.4,0.3,8.1-0.2l0.5,5.3c-17.2,2.8-33.3-8.8-36.2-26s8.8-33.3,26-36.2
	C41.5,112.5,53.1,117.1,60.2,126.4z"/>
<path d="M94.5,142.9l3.2-0.4l0.7,5.3l-3.2,0.4L94.5,142.9z M104.2,142.6l2.9,21.3l-23.5,3.2l-3.5-25.6l19.2-2.6L104.2,142.6z
	 M86.8,150.4l12.8-1.8l-1-7.5l-12.8,1.7L86.8,150.4z M102.3,152.7L85.3,155l1.3,9.6l17.1-2.3L102.3,152.7z"/>
<path d="M34.9,33.7c-8.2,2.8-13.4,11.9-10.6,20.1s12.9,15.7,26.5,26.7c4.1-17,7.6-29.1,4.8-37.3S43.1,30.8,34.9,33.7z M42.2,55.1
	c-3.2,1.1-6.8-0.6-7.8-3.9c-1.1-3.2,0.6-6.8,3.9-7.8c3.2-1.1,6.8,0.6,7.8,3.9c0,0,0,0,0,0C47.1,50.5,45.4,54,42.2,55.1L42.2,55.1z"
	/>
<path d="M185,100.1c-31.5-6.7-62.5,13.3-69.2,44.8c-5.3,24.6,5.8,49.7,27.4,62.5c2.7,1.1,4-0.4,4.4-1.9l2.3-10.6
	c-16.6,0.1-17.7-10.8-17.7-10.8c-1.2-7.1-4.5-9.7-4.5-9.7c-4.4-4.6,1.1-3.4,1.1-3.4c5.6,1.6,7.5,7.8,7.5,7.8c3.2,9.8,12,9,15.6,8.3
	c0.9-2.8,2.7-5.3,5.3-6.9c-12.4-4.2-24.6-11.9-19.9-33.7c1.1-5.7,4.4-10.7,9.1-14c-0.3-1.6-1-7.8,3.8-15c0,0,5.1-0.5,14.4,9.2
	c9.9-0.6,19.7,1.5,28.5,6.1c12.5-5,16.9-2.5,16.9-2.5c1.4,8.5-1.8,13.9-2.7,15.2c3,5,3.9,10.9,2.6,16.6c-4.7,21.9-19.1,23.9-32,22.6
	c1.7,2.2,2.8,6.1,1.6,11.4l-3.4,15.6c-0.3,1.5,0.2,3.5,3.2,3.6c32-3.6,55-32.5,51.3-64.5C227.8,125.7,209.5,105.4,185,100.1z"/>
<path d="M152.6,277.5l-0.6-4.9c-2.6-0.6-4.2-0.6-5.2-2.4l0,0c-1-1.8-0.3-3.2,0.6-5.7l-3.9-3c-2.2,1.4-3.4,2.5-5.4,2l0,0
	c-2-0.6-2.5-2.1-3.6-4.5l-4.9,0.6c-0.6,2.6-0.6,4.2-2.4,5.2l0,0c-1.8,1-3.2,0.3-5.7-0.6l-3,3.9c1.4,2.2,2.5,3.4,2,5.4
	s-2.1,2.5-4.5,3.6l0.6,4.9c2.6,0.6,4.2,0.6,5.2,2.4s0.2,3.3-0.6,5.7l3.9,3c2.2-1.4,3.4-2.5,5.4-2l0,0c2,0.6,2.5,2.1,3.6,4.5l4.9-0.6
	c0.6-2.6,0.6-4.2,2.4-5.2l0,0c1.8-1,3.2-0.2,5.7,0.6l3-3.9c-1.4-2.2-2.5-3.4-2-5.4S150.3,278.7,152.6,277.5z M135,283.3
	c-3.3,0.4-6.4-2-6.8-5.3c-0.4-3.3,2-6.4,5.3-6.8c3.3-0.4,6.4,2,6.8,5.3C140.7,279.9,138.3,282.9,135,283.3L135,283.3z"/>
<path d="M120.7,3.7c-1.9,0.2-2.7-1-4.8-3l-8,0.7l1.9,22.8l27.4-2.3l-1.6-19.4L120.7,3.7z"/>
<path d="M134.9,308.8l0.4,1.7l-3.5,0.8l-0.4-1.7c-0.2-1,0.4-1.9,1.3-2.2C133.7,307.2,134.7,307.8,134.9,308.8z M144.2,309.3
	c1.4,5.8-2.2,11.6-7.9,13c-5.8,1.4-11.6-2.2-13-7.9c-1.4-5.8,2.1-11.6,7.9-13C137,300,142.8,303.5,144.2,309.3L144.2,309.3z
	 M137.1,310.1l-0.9,0.2l-0.4-1.7c-0.4-1.4-1.9-2.2-3.4-1.8c-1.3,0.4-2.1,1.7-1.9,3l0.4,1.7l-0.9,0.2l1.3,5.2l7-1.7L137.1,310.1z"/>
<path d="M4.7,78.3c7-8.2,19.3-9.1,27.5-2.1c1.9,1.7,3.5,3.7,4.7,6H21.8c-2.7,0-4.5-0.1-6.4,0.9c-2.3,1.2-3.9,3.4-4.5,5.9L4.7,78.3z
	 M13,91.1c0,3.6,2.9,6.5,6.5,6.5S26,94.6,26,91c0-3.6-2.9-6.5-6.5-6.5C15.9,84.6,13,87.5,13,91.1L13,91.1z M22,99.5
	c-4,1.2-8.2-0.5-10.2-4.1c-1.8-3.1-6.5-11.3-8.6-15C1.1,83.5,0,87.2,0,91c0,9.3,6.6,17.4,15.7,19.2L22,99.5z M25.5,84.5
	c3,2.8,3.7,7.3,1.6,10.9c-1.5,2.7-6.5,11-8.9,15c10.7,0.7,20-7.5,20.7-18.2c0.2-2.6-0.2-5.2-1.1-7.7L25.5,84.5L25.5,84.5z"/>
<path d="M257.7,71.4c-10.4,0-18.8,8.4-18.8,18.8c0,10.4,8.4,18.8,18.8,18.8c10.4,0,18.8-8.4,18.8-18.8c0,0,0,0,0,0
	C276.5,79.8,268.1,71.4,257.7,71.4z M270.2,85c-2-5.2-7-7.2-8.7-7.1c5.5,2.2,6.9,9.5,6.4,11.7c-0.3-2.1-1.4-3.9-2.9-5.3
	c5.4,12.6-7.6,16.4-11.5,12.1c1.6,0.3,3.2,0,4.5-0.9c1.4-0.9,1.5-1,2.5-1.1c1.1-0.1-0.1-2.2-2.4-1.9c-1,0.2-2.6,1.3-4.5,0.5
	c-2.4-0.9-2.3-4.1,0.1-3.2c0.3-0.6,0.4-1.3,0.1-2c0.7-0.6,1.4-1,2.1-1.4c0.7-0.4,1.2-1.1,1.3-1.9c-0.3-0.3-0.8-0.4-1.2-0.3
	c-2.7,0.2-2.9-0.8-3.1-1.3c0.2-1.3,1-2.4,2.1-3c-1.7-0.3-3.4,0.4-4.4,1.8c-1.1-0.3-2.2-0.3-3.3,0c-0.6-0.5-1.1-1.2-1.4-1.9
	c3-3.4,7.2-5.3,11.7-5.3C266.9,74.5,270.6,81.2,270.2,85z"/>
<path d="M229.7,199.2l4.3-8.3l10.3,3.7l-5,9.6L229.7,199.2z M240.2,204.7l12.5,6.5l6-11.5l-13.4-4.8L240.2,204.7z M238.8,205.2
	l-9.6-5l-3.8,7.3l8.9,6.3L238.8,205.2z M239.8,205.7l-4.6,8.8l11.6,8.2l5.5-10.5L239.8,205.7z"/>
<path d="M110.7,250c-1.8-0.5-2.3-3.2-4.2-3.9c-2-9-8.9-14.8-15.5-17.6c-5.5-2.4-5.8-6.8-7.2-10.1c-2.2-5.4-6.7-10.1-13.3-7.4
	c-7.1,2.9-6.7,9.6-5.3,13c3.1,8.2,5.8,9.6,3.5,17.4c-2.8,9.3-0.8,16.5,2,19.7c-0.4,1.2-1.1,2.4-2,3.3c-3.4,3.5,0.9,5.3,0.6,7.8
	c-0.1,0.7,0,1.4,0.3,2c0.8,1.9,2.9,2.9,5.5,1.5c3.5-1.8,7.9-0.6,10.1-1.5c1.8-0.7,3-2.4,3.2-4.3c3.3-2.3,7.1-3.7,11.1-4.3
	c1.3,1.5,3.5,1.9,5.3,1.2c4.1-1.7,3-6.6,7-10c1.3-1.2,1.7-3.1,1-4.7C112.4,251.1,111.7,250.3,110.7,250z M77.3,233.2
	c-0.8,0.3-1.7-0.1-3.1-0.4c-1.7-0.4-3.3-0.5-3.7-1.5c-0.3-0.7,0.6-1.3,1.5-2.6s1.1-2.4,2.4-2.9s2,0,4.1,0s3.4-0.2,3.8,0.7
	s-1.2,2.3-2,3.3C79.1,231.4,78.7,232.6,77.3,233.2z M76.1,218.5c2.3-0.5,4.2,3.2,3.9,5.6h-1c-0.1-1.5-1-3.8-2.6-3.3
	c-1,0.3-1.1,1.9-0.8,3c-0.5,0-1,0.1-1.4,0.2C73.3,221.6,74,219,76.1,218.5L76.1,218.5z M68,222.7c1.5-1.1,3.3,0.4,4.2,2.5l-0.6,0.8
	c-0.4-0.8-1.4-2-2.2-1.4s0.2,3,1,3.3l-0.6,0.7C67.9,227.4,66.5,223.8,68,222.7L68,222.7z M82.2,272.9c-5.8-0.2-7.3,1-8.2,1.3
	c-1.9,0.8-3.2-0.4-3-2.1c0-1.2-0.3-2.5-1.1-3.5c-0.8-1.4-1.1-1.9,0.1-3.1c1.2-1.2,2.1-2.6,2.5-4.3c0.9-3.1,4.3-0.2,7.2,2.4
	c1.9,1.7,4.3,2,5.9,4.1C87.1,269.8,85.7,273,82.2,272.9L82.2,272.9z M97.8,261.1c-2.8,3.1-6.8,5.6-10.8,5.3c-1-1-2.1-1.8-3.4-2.4
	c1.1-0.8,1.3-2.4,0.5-3.5c-0.2-0.3-0.5-0.5-0.8-0.7c-2-1.3-5.1-1.5-8.6-2.4c-3.2-0.9-5.9-5.3-4.7-11.9c0.3,5.3,3,9.2,4.3,10.1
	c-1.6-4.1-2-8.7-1-13c0.7-3.2-0.6-6.5-1.4-8.6l2,0.4c1.5,0.4,2.8,0.9,4.2,0.4c2-0.8,2.7-2.4,3.8-4c0.5-0.6,1.2-1.4,1.8-2.2
	c3.8,5.6,12.2,10.9,14.2,15c0.2-3.1-3.9-8.6-3.9-8.6c3.4,2.4,4.7,5,6.1,8.2c2.1,0,3.9,1.1,4.9,2.9l-0.6,0.2c-1.3-2.2-8.8-3-7.6,1.5
	c-2.8,1.7,0.2,5.9,0.8,9.2C97.6,258.4,97.7,259.7,97.8,261.1L97.8,261.1z M109.8,256.1c-2.1,2-2.9,4.6-3.5,6.4
	c-1.2,3.3-4.6,3.3-5.8,1.2s-0.6-4.1-1.2-7c-0.5-2.7-2.6-6.2-1.6-7.1c2.5,4.1,6.2,0.4,6.7-1.2c1.6-0.7,2-0.2,3,1.2
	c0.6,0.9,1.5,1.7,2.6,2.1C111.4,252.4,111.7,254.3,109.8,256.1L109.8,256.1z M76.6,231.8c-1.6,0.7-3.3,0.1-4.6-0.4
	c-0.3-0.2-0.3-0.5-0.2-0.7c0.1-0.2,0.3-0.3,0.5-0.3c1.3,0.4,2.6,0.9,3.9,0.4c1.5-0.6,2.3-2.4,3.8-3.9c0.2-0.2,0.6-0.1,0.8,0.1
	c0.2,0.2,0.2,0.5,0,0.7C79.3,229.1,78.5,231,76.6,231.8L76.6,231.8z"/>
<path d="M208.4,253.7c1,0,1.8,0.7,2,1.6c2.3,9.8,2,10.2,3.9,11.1c0.7,0.4,1.2,1.1,1.2,1.9c0,3.2-5.6,2.6-6.8-2.4
	c-0.4-1.4-2.3-9.6-2.3-9.6c-0.3-1.1,0.4-2.3,1.5-2.5C208.1,253.7,208.2,253.7,208.4,253.7z M199.4,256.4l5.3,22.5
	c0.2,0.9,1,1.6,2,1.6c1.2,0,2.1-1,2.1-2.1c0-0.2,0-0.3-0.1-0.5l-5.3-22.5c-0.2-1.1-1.3-1.8-2.4-1.6c0,0,0,0,0,0
	C199.8,254.1,199.1,255.2,199.4,256.4L199.4,256.4z M185.3,261.1h-1.1l-0.1-4.8l-5.9,0.1c-4,0.1-5.7,3.7-9.7,4.6l0.2,13.4
	c3.9,0.8,5.8,4.4,9.8,4.3l5.9-0.1l-0.1-4.8h2.1c1.6,0,3,1.1,3.4,2.7l0.7,2.4c0.2,0.9,1,1.6,2,1.6c1.2,0,2.1-1,2.1-2.1
	c0-0.2,0-0.3-0.1-0.5l-0.8-2.8c-0.8-3.2-3.6-5.5-6.9-5.5h-2.6l-0.1-4.5h1.5c3.6,0,5.1-2,7.5-4.8l4.4,18.6c0.2,0.9,1,1.6,2,1.6
	c1.2,0,2.1-1,2.1-2.1c0-0.2,0-0.3-0.1-0.5l-5.3-22.5c-0.2-0.9-1-1.6-2-1.6c-0.6,0-1.2,0.3-1.6,0.8C190.9,256.6,189,261,185.3,261.1
	L185.3,261.1z M162.7,270.7c-0.5-0.4-0.8-1-0.8-1.7v-2.4c0-0.6,0.3-1.3,0.7-1.7l3.6-3.3l0.2,12.3L162.7,270.7z"/>
<path d="M191.9,35.8l-9.4,31c-0.9,2.8,0.7,5.8,3.5,6.6c0,0,0,0,0,0l1.4,0.4L184,85.5c-0.7,2.7,0.8,5.5,3.5,6.3
	c2.7,0.8,5.5-0.7,6.3-3.3l3.5-11.6l6.6,2l-3.5,11.6c-0.7,2.7,0.9,5.4,3.5,6.2c2.7,0.8,5.5-0.7,6.3-3.3l3.5-11.6l1.5,0.4
	c2.8,0.9,5.8-0.7,6.7-3.5c0,0,0,0,0,0l9.4-31L191.9,35.8z M242.9,56.5c0.8-2.7-0.8-5.6-3.6-6.3c-2.6-0.7-5.4,0.7-6.3,3.3l-6.1,20
	c-0.8,2.7,0.8,5.6,3.6,6.3c2.6,0.7,5.4-0.7,6.3-3.3L242.9,56.5z M187.2,39.7c0.8-2.7-0.8-5.6-3.6-6.3c-2.6-0.7-5.4,0.7-6.3,3.3
	l-6.1,20c-0.8,2.7,0.8,5.6,3.6,6.3c2.6,0.7,5.4-0.7,6.3-3.3L187.2,39.7z M227,25.6l4.9-5.2c0.3-0.3,0.3-0.7,0-1
	c-0.1-0.1-0.2-0.1-0.3-0.2c-0.2-0.1-0.5,0-0.6,0.2l-5,5.2c-4.7-4.2-10.9-6.1-17.1-5.2l-1.3-7.1c0-0.2-0.2-0.4-0.4-0.5
	c-0.4-0.1-0.7,0.1-0.8,0.5c0,0.1,0,0.2,0,0.3l1.2,7c-7.1,1.6-12.6,5.4-14.8,12.8l39.3,11.9C234.5,37,232.1,30.8,227,25.6L227,25.6z
	 M206.4,29.5c-0.9-0.3-1.4-1.2-1.1-2.1c0.3-0.9,1.2-1.4,2.1-1.1c0.9,0.3,1.4,1.2,1.1,2.1c0,0,0,0,0,0
	C208.2,29.2,207.3,29.7,206.4,29.5L206.4,29.5z M222.8,34.5c-0.9-0.3-1.4-1.2-1.1-2.1c0.3-0.9,1.2-1.4,2.1-1.1
	c0.9,0.3,1.4,1.2,1.2,2.1C224.6,34.2,223.7,34.7,222.8,34.5C222.8,34.4,222.8,34.4,222.8,34.5L222.8,34.5z"/>
<path d="M180.6,10.9c-0.2-6.2-5.3-11.2-11.6-11c-5.9,0.1-10.7,4.8-11,10.7c-4.5,0.7-7.6,5-6.8,9.5c0.7,4,4.1,6.9,8.1,6.9l19.6,0.3
	c4.6,0.1,8.4-3.5,8.5-8.1C187.4,15.1,184.5,11.6,180.6,10.9z M167.7,15.9l-3.4,1.4l3.3,1.5V21l-6-2.7V16l6.1-2.5L167.7,15.9z
	 M176.7,18.6l-6.1,2.5v-2.4l3.4-1.4l-3.3-1.5v-2.4l6,2.7L176.7,18.6z"/>
<path d="M172.6,299.5l-0.3,2.2c-1.5-0.2-2.9,0.8-3.3,2.3c-0.3,2.1,0.4,5.8-6.5,4.8l0.3-1.9c4.7,0.7,4-1,4.3-3.2
	c0.2-1.6,1.2-2.9,2.7-3.5c-1.2-0.7-1.9-2.1-1.7-3.5c0.3-2.3,1.6-4.3-3.1-5l0.3-1.9c6.9,1,5,5.1,4.7,7.2
	C169.8,298.5,171.1,299.3,172.6,299.5z M154.9,294.8c0.3-2.1-0.3-6.5,6.6-5.5l-0.3,1.9c-4.6-0.7-4.1,1.6-4.4,3.9
	c-0.2,1.4-1.3,2.5-2.6,2.8c1.3,1,1.9,2.6,1.6,4.1c-0.3,2.2-1.5,3.6,3.2,4.3l-0.3,1.9c-6.9-1-5.1-4.4-4.8-6.5
	c0.1-1.5-0.9-2.9-2.4-3.1l0.3-2.2C153.2,296.6,154.7,296.2,154.9,294.8z"/>
<path d="M251.7,135.3c-0.6,1.3-2.1,1.9-3.4,1.4c-1.3-0.6-1.9-2.1-1.4-3.4c0.6-1.3,2.1-1.9,3.4-1.4c0,0,0,0,0,0
	C251.6,132.5,252.3,134,251.7,135.3z M262.6,117.4c-0.8-1.8-2.2-3.2-4.1-3.9c-4.1-1.8-8.1,0-10.1,4.6l3.8,1.7
	c1.2-2.8,3.3-3.1,4.6-2.6c1.4,0.5,2.1,2.1,1.6,3.5c-0.6,1.7-1.8,2.1-3.3,2.7c-3.8,1.4-4.4,2.6-5.6,5.4l3.8,1.7
	c0.5-1.3,1.1-2.3,3.6-3.4c1.9-0.8,4.3-1.9,5.4-4.5C263.1,120.9,263.2,119.1,262.6,117.4z M241.7,125.3l-7.1-8.4l10.9-0.5l1.9-4.3
	l-16.5,0.8l-1.8,4.1l10.6,12.6L241.7,125.3z M266.8,120.5l-1.9,4.3l7.1,8.4l-10.9,0.5l-1.9,4.3l16.5-0.8l1.8-4.1L266.8,120.5z"/>
<path d="M115.5,227.5l4.6,26.8l46-7.8l-4.6-26.8L115.5,227.5z M147.1,228l3.8-0.6l0.6,3.8l-3.8,0.6L147.1,228z M141.3,229l3.8-0.6
	l0.6,3.8l-3.8,0.6L141.3,229z M148.1,233.7l0.6,3.8l-3.8,0.6l-0.6-3.8L148.1,233.7z M135.6,230l3.8-0.6l0.6,3.8l-3.8,0.6L135.6,230z
	 M142.3,234.7l0.6,3.8l-3.8,0.6l-0.6-3.8L142.3,234.7z M129.8,230.9l3.8-0.6l0.6,3.8l-3.8,0.6L129.8,230.9z M136.6,235.7l0.6,3.8
	l-3.8,0.6l-0.6-3.8L136.6,235.7z M122.2,232.2l5.7-1l0.6,3.8l-5.7,1L122.2,232.2z M123.2,238l7.7-1.3l0.6,3.8l-7.7,1.3L123.2,238z
	 M151.6,243l-19.1,3.3l-0.6-3.8l19.1-3.3L151.6,243z M158.3,235.9l-7.7,1.3l-0.6-3.8l7.7-1.3L158.3,235.9z M157.3,230.2l-3.8,0.6
	l-0.6-3.8l3.8-0.6L157.3,230.2z M136.5,216.4c-2,0.3-4.4,0.6-6.2-1c-0.9-0.9-1.6-2.1-1.7-3.3c-0.1-0.9-0.1-1.7,0-2.6l2.4,0.3
	c-0.3,1.4,0.1,2.8,1,3.9c1,0.9,2.8,0.5,4.7,0.3c4.1-0.4,6.3,1.7,6.7,4.1c0.1,0.9,0.1,1.8-0.2,2.6l-3,0.5
	C141.9,219.4,141.3,215.7,136.5,216.4L136.5,216.4z"/>
<path d="M184.2,224.1c-4.4-0.4-8.3,2.8-8.8,7.1c0,0,0,0,0,0l-0.8,8c-0.4,4.4,2.8,8.3,7.1,8.8c4.4,0.4,8.3-2.8,8.8-7.1l0,0l0.8-8
	C191.8,228.5,188.6,224.5,184.2,224.1C184.2,224.1,184.2,224.1,184.2,224.1z M183.5,231.6c-0.8-0.1-1.4-0.8-1.3-1.6
	c0.1-0.8,0.8-1.4,1.6-1.3c0.8,0.1,1.4,0.8,1.3,1.6c0,0,0,0,0,0C185,231,184.3,231.6,183.5,231.6
	C183.5,231.6,183.5,231.6,183.5,231.6L183.5,231.6z"/>
<path d="M55.6,229.1l-14.3,6.2c-6.7-5.1-15.1-13.9-22.3-29.1l30.6-13.2C55.7,208.4,56.4,220.9,55.6,229.1z M53.6,196.1
	c0.5,1.4,1,2.9,1.4,4.3l3.5-1.5c0.7,4,0.3,8-1.1,11.8c0.5,2.6,0.8,5.1,0.9,7.4c4.8-7.3,5.7-17.9,3.3-25.4L53.6,196.1z M35.2,196.7
	c5.9-12.9-5.6-7.4-5.9-14.4C25,193.4,35.6,189,35.2,196.7z M29.6,199.1c3.9-8.5-4.1-5.7-4.3-10.5C22.3,196.7,29.7,193.7,29.6,199.1
	L29.6,199.1z"/>
<path d="M91.3,190.4L91.3,190.4l0.1,1.4c0.1,2.4,6.8,1.9,6.5-0.5l-0.1-1.4C97.4,187.7,91.3,188.1,91.3,190.4z M96.6,190.3
	c0,0.5-0.9,0.9-2,1s-2.1-0.2-2.1-0.7s0.9-0.9,2-1S96.5,189.8,96.6,190.3L96.6,190.3z M84.2,191.4L84.2,191.4L84.2,191.4l16.6-10.3
	l17.9,8l0.6,7.8l-15.8,9.9l-0.6-7.9l14.2-8.8l-16.1-7.1L86,192.1l15.3,6.8l0.6,8l-17.1-7.6L84.2,191.4z M119.3,198.6l0.6,8.7
	l-15.8,9.7l-0.6-8.5L119.3,198.6z M98.4,195c0.1,2.4,6.8,1.9,6.5-0.5l-0.1-1.4c-0.4-2.3-6.5-1.8-6.5,0.5l0,0L98.4,195z M101.6,192.7
	c1.1-0.1,2.1,0.2,2.1,0.7s-0.9,0.9-2,1s-2.1-0.2-2.1-0.7S100.4,192.8,101.6,192.7L101.6,192.7z M104.4,187.4l-0.1-1.4
	c-0.4-2.3-6.5-1.8-6.5,0.5l0,0l0.1,1.4C98,190.3,104.7,189.9,104.4,187.4L104.4,187.4z M101.1,185.6c1.1-0.1,2.1,0.2,2.1,0.7
	s-0.9,0.9-2,1s-2.1-0.2-2.1-0.7S99.9,185.7,101.1,185.6L101.1,185.6z M111.5,190.4l-0.1-1.4c-0.4-2.3-6.5-1.8-6.5,0.5l0,0l0.1,1.4
	C105.1,193.3,111.7,192.8,111.5,190.4L111.5,190.4z M106.1,189.6c0-0.5,0.9-0.9,2-1s2.1,0.2,2.1,0.7s-0.9,0.9-2,1
	S106.2,190,106.1,189.6L106.1,189.6z M102,208.6l0.6,8.5l-17.1-7.3l-0.6-8.8L102,208.6z"/>
<path d="M229.1,234.2l2.6,2.7l-18.6,4.8l-13.3-13.9l3.6-0.9l10.7,11.2L229.1,234.2z M212.2,244.7l-10.7-11.2l-3.6,0.9l13.3,13.9
	l18.6-4.8l-2.6-2.7L212.2,244.7z M233.6,230.2l-13.3-13.8l-18.6,4.8L215,235L233.6,230.2z"/>
<path d="M77,9.3L59,23.8l4,22l21.9,7l18-14.3l-4-21.9L77,9.3z M93.6,18.7L80.6,29l-15.7-5.2l12.9-10.4L93.6,18.7z M85.8,47.4
	L83,31.8l13.1-10.4L99,37L85.8,47.4z"/>
<path d="M253.2,174c-0.5,3.9-3.9,7.2-8,8.4c-0.8-4.1,0.4-8.8,3.7-11.1l0.9,0.6c-1.7,2.8-2,4.8-1.9,5.8c1-0.4,2.7-1.6,4.3-4.3
	L253.2,174z M247.4,158c-3.1,1-5.8,3.1-7.4,5.9c-0.7,1.2-1.3,2.5-1.6,3.9c1.6-2.3,4.6-3.3,7.3-2.5C246,162.8,246.6,160.3,247.4,158
	L247.4,158z M261.3,181.5c1.1-0.9,2-2,2.7-3.2c1.7-2.8,2.3-6.1,1.7-9.4c-1.7,1.9-3.6,3.5-5.7,5C262.1,175.9,262.6,179,261.3,181.5
	L261.3,181.5z M269.1,142.6c-0.7,0.1-1.3,0.2-1.9,0.4c-13.6,3.4-18.4,16-18.7,24.8l8,4.8c7.7-4.8,16.4-14.6,13.1-28v-0.1
	C269.5,143.9,269.3,143.2,269.1,142.6L269.1,142.6z M263.3,156.3c-1.6,0.4-3.2-0.6-3.6-2.2c-0.4-1.6,0.6-3.2,2.2-3.6
	s3.2,0.6,3.6,2.2c0,0,0,0,0,0C265.9,154.3,264.9,155.9,263.3,156.3L263.3,156.3z"/>
</svg>
